<?xml version="1.0" encoding="UTF-8"?>
<svg enable-background="new 0 0 512 512" version="1.1" viewBox="0 0 512 512" xml:space="preserve" xmlns="http://www.w3.org/2000/svg">
<path d="m478.97 0s-3.969 183.68-105.29 267.87l-73.807-59.871c66.703-141.28 179.1-208 179.1-208z" fill="#AEA8AF"/>
<path d="m373.68 267.87l-32.684-26.514-2.454-21.745c17.821-40.888 64.63-137.5 140.43-219.61 0 0-3.97 183.68-105.29 267.87z" fill="#9C969E"/>
<path d="m33.032 0s3.969 183.68 105.29 267.87l73.807-59.871c-66.703-141.28-179.1-208-179.1-208z" fill="#AEA8AF"/>
<path d="m138.32 267.87l32.684-26.514 2.454-21.745c-17.821-40.888-64.63-137.5-140.43-219.61 0 0 3.97 183.68 105.29 267.87z" fill="#9C969E"/>
<path d="m401.64 361.41c-8.914-15.482-14.206-32.579-13.566-50.215 0.038-1.053 0.058-2.111 0.058-3.172 0-60.659-59.156-109.83-132.13-109.83s-132.13 49.174-132.13 109.83c0 1.061 0.019 2.118 0.058 3.172 0.639 17.636-4.652 34.733-13.566 50.215-7.251 12.594-11.266 26.338-11.266 40.755-1e-3 60.659 70.247 109.83 156.9 109.83s156.9-49.174 156.9-109.83c0-14.418-4.014-28.162-11.265-40.756z" fill="#C9C6CA"/>
<path d="m159.66 415.1c0-16.695 4.015-32.608 11.266-47.191 8.914-17.926 14.206-37.723 13.566-58.144-0.038-1.219-0.057-2.444-0.057-3.672 0-45.302 24.685-84.965 61.739-107.49-68.364 4.195-122.3 51.52-122.3 109.42 0 1.061 0.019 2.118 0.057 3.172 0.64 17.636-4.652 34.733-13.566 50.215-7.251 12.594-11.266 26.338-11.266 40.756 0 48.893 45.67 90.279 108.75 104.51-29.66-23.137-48.195-55.575-48.195-91.575z" fill="#C0BCC1"/>
<path d="m181.68 388.13c-13.682 0-24.774-11.092-24.774-24.774v-8.258c0-13.682 11.092-24.774 24.774-24.774s24.774 11.092 24.774 24.774v8.258c1e-3 13.682-11.091 24.774-24.774 24.774z" fill="#4B3F4E"/>
<path d="m181.68 330.32v28.903c0 6.841 5.546 12.387 12.387 12.387s12.387-5.546 12.387-12.387v-4.129c1e-3 -13.683-11.091-24.774-24.774-24.774z" fill="#5D5360"/>
<circle cx="181.68" cy="346.84" r="8.258" fill="#fff"/>
<path d="m330.32 388.13c-13.682 0-24.774-11.092-24.774-24.774v-8.258c0-13.682 11.092-24.774 24.774-24.774s24.774 11.092 24.774 24.774v8.258c0 13.682-11.092 24.774-24.774 24.774z" fill="#4B3F4E"/>
<path d="m330.32 330.32v28.903c0 6.841 5.546 12.387 12.387 12.387s12.387-5.546 12.387-12.387v-4.129c0-13.683-11.092-24.774-24.774-24.774z" fill="#5D5360"/>
<circle cx="330.32" cy="346.84" r="8.258" fill="#fff"/>
<path d="m330.32 412.9c-49.548-16.516-57.806-41.29-57.806-57.806s-8.258-24.774-16.516-24.774-16.516 8.258-16.516 24.774-8.258 41.29-57.806 57.806c-34.586 11.529-44.987 35.14-42.524 62.384 28.729 22.482 70.362 36.713 116.84 36.713s88.116-14.232 116.85-36.713c2.463-27.244-7.939-50.855-42.524-62.384z" fill="#DBD9DC"/>
<path d="m284.01 500.99c-9.79 0-19.085-3.278-26.871-9.48-0.649-0.524-1.633-0.52-2.282-4e-3 -7.79 6.206-17.081 9.484-26.871 9.484-14.782 0-28.512-7.585-36.73-20.286-2.476-3.827-1.379-8.94 2.452-11.419 3.823-2.476 8.94-1.375 11.419 2.452 5.157 7.976 13.706 12.738 22.859 12.738 6.012 0 11.746-2.036 16.577-5.883 6.621-5.282 16.242-5.286 22.871 4e-3 4.827 3.843 10.56 5.879 16.577 5.879 9.153 0 17.698-4.762 22.859-12.742 2.48-3.823 7.593-4.919 11.419-2.452 3.831 2.48 4.927 7.593 2.452 11.419-8.219 12.705-21.949 20.29-36.731 20.29z" fill="#C0BCC1"/>
<path d="m256 412.9c20.787 0 37.638 12.262 37.638 27.389 0 14.588-15.818 22.269-27.234 27.949-6.617 3.292-14.19 3.292-20.807 0-11.416-5.68-27.234-13.361-27.234-27.949-1e-3 -15.126 16.85-27.389 37.637-27.389z" fill="#FF96A0"/>
<path d="m264.42 464.76c-11.416-6.727-27.234-15.826-27.234-33.105 0-6.234 2.076-12.036 5.611-16.98-14.262 3.896-24.431 13.881-24.431 25.621 0 14.587 15.818 22.269 27.234 27.949 6.617 3.292 14.19 3.292 20.807 0 0.917-0.456 1.87-0.932 2.834-1.416-1.641-0.487-3.261-1.15-4.821-2.069z" fill="#FF8087"/>
<path d="m207.85 506.68c-27.293-21.29-44.97-50.498-47.65-83.068-17.48 12.784-22.899 31.203-21.048 51.675-8e-3 0.015-0.013 0.03-0.021 0.045 18.344 14.33 41.934 25.305 68.719 31.348z" fill="#C9C6CA"/>
</svg>